<?xml version="1.0" encoding="utf-8"?>
<!-- Generator: Adobe Illustrator 27.5.0, SVG Export Plug-In . SVG Version: 6.00 Build 0)  -->
<svg version="1.1" xmlns="http://www.w3.org/2000/svg" xmlns:xlink="http://www.w3.org/1999/xlink" x="0px" y="0px"
	 viewBox="0 0 1122 1122" style="enable-background:new 0 0 1122 1122;" xml:space="preserve">
<g id="background">
	<g>
		<rect style="fill:#FFFFFF00;" width="1122" height="1122"/>
	</g>
</g>
<g id="shadow">
	<path style="opacity:0.12;fill:#606060;" d="M203.945,1029c24-24,148-17,187-12c38.999,5,120.039-6.735,120.043-6.735
		c14.747-2.392,31.978-4.815,51.957-7.265c0,0,280-24,360,16s-174,48-247,51c-31.508,1.295-114.617-3.931-173.989-13.345
		c-60.915-8.335-88.024-14.654-142.011-8.655C305.945,1054,179.945,1053,203.945,1029z"/>
</g>
<g id="object">
	<g>
		<g>
			<g>
				<path style="fill:#FFF0D2;" d="M634.036,432.535c4.693,0.541,9.59-0.243,14.115-2.547c12.245-6.235,17.117-21.216,10.882-33.461
					c-5.554-10.906-18.044-15.956-29.362-12.525c-0.258-3.967-1.306-7.948-3.224-11.715c-7.56-14.847-25.725-20.754-40.572-13.194
					c-14.847,7.56-20.754,25.725-13.194,40.572c2.313,4.543,5.622,8.243,9.521,10.982c-6.946,8.689-8.605,20.974-3.229,31.533
					c7.326,14.388,24.929,20.112,39.317,12.786C627.265,450.395,632.867,441.827,634.036,432.535z"/>
			</g>
			<g>
				<path style="fill:#FFC866;" d="M618.29,454.965c8.974-4.57,14.577-13.138,15.745-22.43c4.693,0.541,9.59-0.243,14.115-2.547
					c7.339-3.737,12.026-10.617,13.263-18.166c-2.827,3.391-6.37,6.28-10.553,8.41c-9.095,4.631-19.304,4.715-28.054,1.108
					c-2.229,9.198-8.302,17.405-17.397,22.036c-7.803,3.973-16.428,4.602-24.247,2.423
					C589.403,457.477,605.18,461.641,618.29,454.965z"/>
			</g>
		</g>
		<g>
			<g>
				<path style="fill:#FFF0D2;" d="M549.729,408.176c2.305,0.065,4.657-0.156,7.01-0.692c15.012-3.416,24.422-18.312,21.018-33.271
					c-3.178-13.966-16.402-23.046-30.359-21.411c0.211-2.323,0.071-4.717-0.474-7.113c-2.797-12.293-15.066-19.983-27.402-17.176
					c-12.305,2.8-20.028,14.986-17.291,27.247c-7.951,3.04-12.667,11.516-10.73,20.028c1.953,8.585,9.993,14.207,18.559,13.392
					c-4.749,5.327-6.943,12.775-5.243,20.246c2.797,12.293,15.066,19.983,27.402,17.176
					C541.522,424.486,548.205,417.001,549.729,408.176z M522.748,381.953c-0.05,0.01-0.101,0.02-0.151,0.03
					c0.048-0.067,0.097-0.133,0.144-0.201C522.743,381.839,522.745,381.896,522.748,381.953z"/>
			</g>
			<g>
				<g>
					<path style="fill:#FFC866;" d="M532.218,426.603c9.305-2.117,15.987-9.602,17.511-18.427c2.305,0.065,4.657-0.156,7.01-0.692
						c15.012-3.416,24.422-18.312,21.018-33.271c-0.748-3.286-2.058-6.298-3.797-8.967c0.151,0.512,0.292,1.03,0.412,1.558
						c3.101,13.626-5.471,27.195-19.145,30.306c-5.436,1.237-10.857,0.628-15.615-1.403c2.618,12.459-5.261,24.77-17.766,27.615
						c-1.427,0.325-2.853,0.505-4.265,0.565c-0.448,0.187-0.898,0.368-1.353,0.536C520.944,426.969,526.572,427.888,532.218,426.603
						z"/>
				</g>
			</g>
		</g>
		<g>
			<g>
				<path style="fill:#C5F378;" d="M546.709,306.019c0,0-43.02-9.912-56.87,64.116c-13.849,74.028-34.603,195.071-34.603,195.071
					s38.057,27.923,123.057,27.749c85-0.173,78.929-35.161,78.929-35.161s-41.299-146.916-49.383-187.9
					C599.756,328.911,576.691,296.958,546.709,306.019z"/>
			</g>
			<g>
				<g>
					<g>
						<path style="fill:#C19D05;" d="M573.327,255.011c-0.514-0.227-1.032-0.443-1.55-0.648c-7.517-2.974-15.691-4.226-23.763-3.803
							c-2.979,0.156-6.01,0.555-8.688,1.87c-3.964,1.945-6.781,5.749-8.36,9.873c-1.579,4.123-2.048,8.58-2.331,12.986
							c-1.759-0.579-2.994-2.134-4.037-3.664c-3.066-4.497-6.13-10.022-6.864-15.502c-0.742-5.541,1.625-11.831-0.345-17.137
							c-0.911-2.453-2.945-4.285-4.465-6.414c-3.289-4.605-4.091-10.882-2.066-16.166c1.299-3.389,3.808-6.422,7.171-7.785
							c5.568-2.257,11.936,0.384,17.873-0.536c3.012-0.467,5.841-1.845,8.872-2.167c6.39-0.679,12.301,3.402,16.857,7.933
							c4.555,4.532,8.603,9.833,14.328,12.75c4.593,2.34,9.882,2.93,14.637,4.917c7.934,3.315,13.983,10.586,16.288,18.87
							c2.583,9.283,1.129,20.657-6.062,27.363c-3.605,3.361-6.612,7.196-9.666,11.035c-1.06,1.333-11.807,9.527-11.051,4.146
							c0.587-4.177,2.513-8.079,3.071-12.26C584.537,270.482,582.142,258.906,573.327,255.011z"/>
					</g>
				</g>
				<g>
					<g>
						<g>
							<path style="fill:#EBCEB1;" d="M535.944,242.087c12.246,8.745,30.534,5.315,41.576,15.636
								c7.18,6.711,9.29,18.048,6.877,27.912c-1.125,4.598-3.209,9.087-6.628,12.261c-2.219,2.06-4.917,3.491-7.71,4.524
								c-3.733,1.38-7.678,2.014-11.607,1.955c0.007,0.446,0.018,0.893,0.035,1.339c0.176,4.773-4.113,8.481-8.817,7.647
								c-3.965-0.702-7.929-1.405-11.894-2.107c0.731-4.25,1.461-8.5,2.192-12.75c-1.718-1.18-3.337-2.514-4.801-4.026
								c-8.857-9.146-12.044-23.785-7.887-36.234C529.228,252.413,532.586,247.199,535.944,242.087z"/>
						</g>
					</g>
				</g>
			</g>
			<g>
				<polygon style="fill:#C5F378;" points="563.832,308.771 640.34,284.043 715.846,231 727,246.652 659.216,314.478 580.279,351 
									"/>
			</g>
			<g>
				<polygon style="fill:#C5F378;" points="535,311 469,266 422,195 406,206 441,284 503,349 				"/>
			</g>
			<g>
				<polygon style="fill:#EBCEB1;" points="716,231 724,222 727,224 749,222 749,235 725.5,244.548 				"/>
			</g>
			<g>
				<polygon style="fill:#EBCEB1;" points="420.897,195.759 414,183 408,185 385,185 385,195 407.217,205.164 				"/>
			</g>
		</g>
		<g>
			<g>
				<path style="fill:#801516;" d="M769.969,503.798c0-12.793-10.37-23.163-23.163-23.163c-11.178,0-20.496,7.92-22.672,18.453
					c-1.586-11.247-11.245-19.901-22.93-19.901c-12.792,0-23.163,10.37-23.163,23.163c0,0.243,0.011,0.483,0.018,0.724h-0.039
					c0.013-0.444,0.021-0.69,0.021-0.724c0-12.593-10.208-22.439-22.801-22.439c-12.593,0-22.801,10.208-22.801,22.801
					c0,0.121,0.005,0.241,0.009,0.362h-0.028c0.007-0.241,0.018-0.481,0.018-0.724c0-12.793-10.37-23.163-23.163-23.163
					s-23.163,10.37-23.163,23.163c0,0.243,0.011,0.483,0.018,0.724h-0.02c0.001-0.217,0.002-0.342,0.002-0.362
					c0-12.593-10.208-22.801-22.801-22.801c-12.593,0-22.801,10.208-22.801,22.801c0,0.121,0.005,0.241,0.009,0.362h-0.027
					c0.007-0.241,0.018-0.481,0.018-0.724c0-12.793-10.37-23.163-23.163-23.163c-12.792,0-23.163,10.37-23.163,23.163
					c0,0.243,0.011,0.483,0.018,0.724h-0.027c0.004-0.12,0.009-0.24,0.009-0.362c0-12.593-10.208-22.801-22.801-22.801
					s-22.801,10.208-22.801,22.801c0,0.023,0.004,0.148,0.011,0.362h-0.029c0.007-0.241,0.018-0.481,0.018-0.724
					c0-12.793-10.371-23.163-23.163-23.163c-12.793,0-23.163,10.37-23.163,23.163c0,0.243,0.011,0.483,0.018,0.724h-0.027
					c0.004-0.12,0.009-0.24,0.009-0.362c0-12.593-10.208-22.801-22.801-22.801c-12.593,0-22.801,10.208-22.801,22.801
					c0,1.683,25.589,395.417,31.152,480.991c-0.009,0.001-0.018,0.003-0.027,0.004l0.821,12.22c0.173,2.658,0.264,4.067,0.264,4.067
					h39.088l-0.007-0.133h39.09c0.003,0.085,0.005,0.133,0.005,0.133h38.364l-0.003-0.133h39.09l0.001,0.133h39.088
					c0,0,0-0.048,0.001-0.133h39.09l-0.003,0.133h39.088c0,0,0.002-0.048,0.004-0.133h39.089l-0.006,0.133h38.364
					c0,0,0.003-0.048,0.008-0.133h0.13l0.014-0.229h0.21l18.096-296.362c0,0-0.006,0.016-0.011,0.033
					C764.196,597.898,769.969,504.671,769.969,503.798z"/>
			</g>
			<g>
				<polygon style="fill:#661112;" points="741.015,999.632 711.337,1027.138 741.739,531.305 769.969,506.694 				"/>
			</g>
		</g>
		<g>
			<g>
				<path style="fill:#FFF0D2;" d="M646.218,456.111c-0.803-5.438-3.156-10.708-7.107-15.102
					c-10.691-11.891-28.998-12.864-40.889-2.172c-10.591,9.523-12.512,25.083-5.253,36.775c-4.382,1.483-8.543,3.858-12.201,7.147
					c-14.418,12.963-15.597,35.16-2.634,49.578s35.16,15.597,49.578,2.634c4.411-3.966,7.577-8.799,9.483-14.006
					c11.857,5.196,26.167,3.368,36.42-5.851c13.972-12.562,15.115-34.073,2.552-48.045
					C668.332,458.352,657.015,454.63,646.218,456.111z"/>
			</g>
			<g>
				<path style="fill:#FFC866;" d="M676.168,467.067c-7.836-8.715-19.153-12.437-29.951-10.957
					c-0.803-5.438-3.156-10.708-7.107-15.102c-6.408-7.127-15.552-10.327-24.41-9.449c4.662,2.158,8.975,5.273,12.628,9.335
					c7.941,8.832,11.105,20.285,9.681,31.206c11.01-0.259,22.063,4.1,30.004,12.932c6.813,7.578,10.114,17.085,10.015,26.53
					C687.678,498.787,687.615,479.799,676.168,467.067z"/>
			</g>
		</g>
		<g>
			<g>
				<path style="fill:#FFF0D2;" d="M526.046,563.453c5.287,1.505,11.058,1.529,16.689-0.263
					c15.237-4.852,23.656-21.137,18.804-36.374c-4.321-13.571-17.714-21.725-31.356-19.919c0.452-4.604-0.001-9.373-1.494-14.061
					c-5.883-18.475-25.628-28.683-44.103-22.8c-18.475,5.883-28.683,25.628-22.8,44.103c1.8,5.652,4.902,10.526,8.864,14.407
					c-9.615,8.669-13.836,22.464-9.652,35.602c5.701,17.903,24.836,27.796,42.739,22.095
					C514.904,582.687,522.953,573.903,526.046,563.453z"/>
			</g>
			<g>
				<path style="fill:#FFC866;" d="M503.736,586.242c11.167-3.556,19.216-12.339,22.31-22.789
					c5.287,1.505,11.058,1.529,16.689-0.263c9.133-2.908,15.811-9.925,18.656-18.361c-3.885,3.362-8.499,6.01-13.704,7.668
					c-11.317,3.604-23.057,1.775-32.425-4.017c-4.294,10.142-12.815,18.422-24.132,22.026c-9.71,3.092-19.733,2.188-28.301-1.788
					C470.091,583.681,487.422,591.437,503.736,586.242z"/>
			</g>
		</g>
		<g>
			<g>
				<path style="fill:#FFF0D2;" d="M811.965,344.128c5.287,1.506,11.058,1.529,16.689-0.263
					c15.237-4.852,23.656-21.137,18.804-36.374c-4.321-13.571-17.714-21.725-31.356-19.919c0.451-4.604-0.001-9.373-1.494-14.061
					c-5.883-18.475-25.628-28.683-44.103-22.8c-18.475,5.883-28.683,25.628-22.8,44.103c1.8,5.652,4.902,10.526,8.864,14.407
					c-9.615,8.669-13.836,22.464-9.653,35.602c5.701,17.903,24.836,27.796,42.739,22.095
					C800.822,363.362,808.871,354.578,811.965,344.128z"/>
			</g>
			<g>
				<path style="fill:#FFC866;" d="M789.655,366.918c11.167-3.556,19.216-12.339,22.31-22.79c5.287,1.506,11.058,1.529,16.689-0.263
					c9.133-2.908,15.811-9.925,18.656-18.361c-3.885,3.362-8.499,6.01-13.704,7.668c-11.317,3.604-23.057,1.775-32.425-4.017
					c-4.294,10.142-12.815,18.422-24.133,22.025c-9.71,3.092-19.733,2.188-28.301-1.788
					C756.009,364.356,773.341,372.112,789.655,366.918z"/>
			</g>
		</g>
		<g>
			<g>
				<path style="fill:#FFF0D2;" d="M815.965,1008.128c5.287,1.506,11.058,1.529,16.689-0.263
					c15.237-4.852,23.656-21.137,18.804-36.374c-4.321-13.571-17.714-21.725-31.356-19.919c0.451-4.604-0.001-9.373-1.494-14.061
					c-5.883-18.475-25.628-28.683-44.103-22.8c-18.475,5.883-28.683,25.628-22.8,44.103c1.8,5.652,4.902,10.526,8.864,14.407
					c-9.615,8.669-13.836,22.464-9.653,35.602c5.701,17.903,24.836,27.796,42.739,22.095
					C804.822,1027.362,812.871,1018.578,815.965,1008.128z"/>
			</g>
			<g>
				<path style="fill:#FFC866;" d="M793.655,1030.917c11.167-3.556,19.216-12.339,22.31-22.789
					c5.287,1.506,11.058,1.529,16.689-0.263c9.133-2.908,15.811-9.925,18.656-18.361c-3.885,3.362-8.499,6.01-13.704,7.668
					c-11.317,3.604-23.057,1.775-32.425-4.017c-4.294,10.142-12.815,18.422-24.133,22.025c-9.71,3.092-19.733,2.188-28.301-1.788
					C760.009,1028.356,777.341,1036.112,793.655,1030.917z"/>
			</g>
		</g>
		<g>
			<g>
				<path style="fill:#FFF0D2;" d="M278.137,559.546c2.357-3.613,3.715-7.935,3.679-12.572c-0.098-12.549-10.351-22.643-22.9-22.545
					c-11.178,0.087-20.4,8.233-22.215,18.88c-3.347-1.408-7.027-2.176-10.888-2.146c-15.216,0.119-27.455,12.551-27.336,27.767
					c0.119,15.216,12.551,27.455,27.767,27.336c4.656-0.036,9.029-1.23,12.859-3.299c4.266,9.221,13.626,15.59,24.448,15.505
					c14.746-0.115,26.606-12.162,26.49-26.908C289.968,572.366,285.253,564.292,278.137,559.546z"/>
			</g>
			<g>
				<path style="fill:#FFC866;" d="M290.04,581.564c-0.072-9.198-4.787-17.272-11.903-22.018c2.357-3.613,3.715-7.935,3.679-12.572
					c-0.059-7.522-3.768-14.159-9.431-18.25c1.618,3.694,2.532,7.767,2.565,12.055c0.073,9.321-4.025,17.697-10.542,23.375
					c6.605,5.575,10.834,13.886,10.907,23.207c0.063,7.997-2.943,15.301-7.914,20.801C280.305,606.192,290.145,595,290.04,581.564z"
					/>
			</g>
		</g>
		<g>
			<g>
				<path style="fill:#FFF0D2;" d="M426.431,470.618c0.756-2.929,1.159-6,1.159-9.164c0-20.188-16.366-36.554-36.554-36.554
					c-18.848,0-34.359,14.266-36.336,32.589c-2.919-0.946-6.031-1.463-9.266-1.463c-16.59,0-30.039,13.449-30.039,30.04
					c0,16.548,13.381,29.967,29.913,30.036c1.58,11.051,11.079,19.547,22.566,19.547c11.586,0,21.147-8.644,22.603-19.833
					c5.448,7.622,14.364,12.595,24.447,12.595c16.59,0,30.04-13.449,30.04-30.04C444.962,485.857,437.31,475.134,426.431,470.618z
					 M384.905,497.486c-0.002,0.068-0.004,0.135-0.005,0.203c-0.072-0.081-0.143-0.162-0.216-0.242
					C384.758,497.459,384.832,497.473,384.905,497.486z"/>
			</g>
			<g>
				<g>
					<path style="fill:#FFC866;" d="M444.962,498.37c0-12.513-7.653-23.235-18.531-27.752c0.756-2.929,1.159-6,1.159-9.164
						c0-20.188-16.366-36.554-36.554-36.554c-4.435,0-8.682,0.799-12.615,2.246c0.701-0.044,1.406-0.074,2.119-0.074
						c18.389,0,33.297,14.907,33.297,33.297c0,7.311-2.365,14.065-6.36,19.557c16.751,0.277,30.247,13.933,30.247,30.75
						c0,1.92-0.184,3.795-0.521,5.617c0.109,0.628,0.21,1.256,0.292,1.886C442.14,512.89,444.962,505.961,444.962,498.37z"/>
				</g>
			</g>
		</g>
		<g>
			<g>
				<path style="fill:#FFF0D2;" d="M285.433,334.608c-0.799-2.441-1.916-4.822-3.364-7.086
					c-9.236-14.442-28.432-18.662-42.874-9.426c-13.483,8.623-18.052,25.926-11.084,39.937c-2.521,0.659-4.984,1.713-7.298,3.193
					c-11.868,7.59-15.336,23.365-7.746,35.233c7.571,11.838,23.283,15.316,35.141,7.801c6.186,7.183,16.869,8.915,25.086,3.659
					c8.288-5.301,11.173-15.858,7.095-24.529c7.385,2.96,16.038,2.438,23.251-2.175c11.868-7.591,15.336-23.365,7.746-35.233
					C305.662,337.031,295.282,332.862,285.433,334.608z M268.02,372.828c0.03,0.049,0.059,0.098,0.089,0.147
					c-0.088-0.025-0.176-0.051-0.265-0.074C267.902,372.876,267.961,372.852,268.02,372.828z"/>
			</g>
			<g>
				<g>
					<path style="fill:#FFC866;" d="M311.387,345.983c-5.725-8.951-16.105-13.121-25.954-11.374
						c-0.799-2.441-1.916-4.822-3.364-7.086c-9.236-14.442-28.432-18.662-42.874-9.426c-3.173,2.029-5.845,4.543-7.997,7.378
						c0.482-0.352,0.972-0.697,1.482-1.023c13.155-8.413,30.64-4.57,39.053,8.586c3.345,5.23,4.743,11.143,4.398,16.9
						c12.11-7.466,28.012-3.871,35.706,8.159c0.878,1.373,1.604,2.799,2.197,4.257c0.366,0.399,0.725,0.802,1.072,1.216
						C316.011,357.661,314.86,351.414,311.387,345.983z"/>
				</g>
			</g>
		</g>
		<g>
			<g>
				<path style="fill:#FFF0D2;" d="M581.334,463.38c0.756-2.929,1.159-6,1.159-9.165c0-20.188-16.366-36.554-36.554-36.554
					c-18.848,0-34.359,14.266-36.336,32.589c-2.919-0.946-6.031-1.463-9.266-1.463c-16.59,0-30.04,13.449-30.04,30.04
					c0,16.548,13.381,29.968,29.913,30.036c1.58,11.051,11.079,19.547,22.566,19.547c11.586,0,21.147-8.644,22.602-19.833
					c5.448,7.622,14.364,12.595,24.448,12.595c16.59,0,30.039-13.449,30.039-30.04C599.865,478.618,592.212,467.896,581.334,463.38z
					 M539.808,490.247c-0.002,0.067-0.004,0.135-0.005,0.203c-0.072-0.081-0.143-0.162-0.216-0.242
					C539.661,490.221,539.734,490.235,539.808,490.247z"/>
			</g>
			<g>
				<g>
					<path style="fill:#FFC866;" d="M599.865,491.131c0-12.513-7.653-23.235-18.531-27.752c0.756-2.929,1.159-6,1.159-9.165
						c0-20.188-16.366-36.554-36.554-36.554c-4.435,0-8.682,0.799-12.615,2.246c0.701-0.044,1.406-0.074,2.119-0.074
						c18.389,0,33.297,14.908,33.297,33.297c0,7.311-2.365,14.065-6.36,19.557c16.751,0.277,30.247,13.934,30.247,30.75
						c0,1.92-0.185,3.795-0.521,5.617c0.11,0.628,0.211,1.256,0.292,1.886C597.043,505.652,599.865,498.723,599.865,491.131z"/>
				</g>
			</g>
		</g>
		<g>
			<g>
				<path style="fill:#FFF0D2;" d="M493.851,402.384c1.314-2.362,2.354-4.927,3.068-7.664c4.549-17.458-5.915-35.299-23.373-39.848
					c-16.299-4.247-32.927,4.594-38.766,19.993c-2.311-1.476-4.886-2.624-7.683-3.353c-14.347-3.739-29.008,4.861-32.746,19.208
					c-3.729,14.31,4.818,28.93,19.099,32.715c-1.124,9.912,5.176,19.4,15.109,21.989c10.019,2.611,20.235-2.709,24.015-12.057
					c2.994,7.819,9.583,14.128,18.303,16.401c14.347,3.739,29.008-4.861,32.746-19.208
					C506.442,419.738,502.241,408.741,493.851,402.384z M451.887,416.26c-0.017,0.058-0.034,0.116-0.05,0.174
					c-0.044-0.086-0.087-0.172-0.132-0.258C451.766,416.204,451.826,416.233,451.887,416.26z"/>
			</g>
			<g>
				<g>
					<path style="fill:#FFC866;" d="M503.622,430.558c2.82-10.821-1.382-21.817-9.771-28.175c1.314-2.362,2.354-4.927,3.068-7.664
						c4.549-17.458-5.915-35.299-23.373-39.848c-3.836-1-7.688-1.266-11.415-0.901c0.616,0.12,1.233,0.253,1.849,0.413
						c15.902,4.144,25.434,20.395,21.29,36.297c-1.648,6.322-5.214,11.63-9.907,15.479c14.423,4.014,23.016,18.865,19.227,33.408
						c-0.433,1.66-1.015,3.24-1.716,4.74c-0.047,0.567-0.101,1.134-0.172,1.697C497.91,442.479,501.912,437.123,503.622,430.558z"/>
				</g>
			</g>
		</g>
		<g>
			<g>
				<path style="fill:#FFF0D2;" d="M938.767,427.778c1.309-2.163,2.37-4.525,3.131-7.059c4.853-16.164-4.317-33.201-20.48-38.054
					c-15.091-4.531-30.939,3.163-36.926,17.358c-2.11-1.459-4.477-2.621-7.067-3.399c-13.283-3.988-27.284,3.547-31.272,16.831
					c-3.978,13.249,3.51,27.21,16.73,31.239c-1.391,9.227,4.172,18.313,13.369,21.075c9.276,2.785,19.009-1.837,22.864-10.446
					c2.53,7.412,8.473,13.537,16.546,15.961c13.283,3.988,27.284-3.547,31.272-16.83
					C949.941,444.434,946.391,434.009,938.767,427.778z M899.061,439.308c-0.018,0.054-0.035,0.107-0.053,0.161
					c-0.038-0.082-0.075-0.164-0.115-0.246C898.95,439.252,899.005,439.281,899.061,439.308z"/>
			</g>
			<g>
				<g>
					<path style="fill:#FFC866;" d="M946.933,454.452c3.008-10.019-0.542-20.443-8.166-26.674c1.309-2.163,2.37-4.525,3.131-7.059
						c4.853-16.164-4.317-33.201-20.48-38.054c-3.551-1.066-7.143-1.447-10.64-1.234c0.572,0.133,1.144,0.279,1.714,0.45
						c14.723,4.42,23.076,19.94,18.655,34.663c-1.757,5.854-5.274,10.693-9.793,14.13c13.345,4.248,20.868,18.426,16.826,31.891
						c-0.461,1.537-1.06,2.994-1.768,4.372c-0.063,0.529-0.133,1.056-0.219,1.581C941.183,465.4,945.108,460.531,946.933,454.452z"
						/>
				</g>
			</g>
		</g>
		<g>
			<g>
				<path style="fill:#FFF0D2;" d="M331.767,994.778c1.309-2.163,2.37-4.525,3.131-7.059c4.853-16.164-4.317-33.201-20.48-38.054
					c-15.091-4.531-30.939,3.163-36.926,17.358c-2.11-1.459-4.477-2.621-7.067-3.399c-13.283-3.988-27.284,3.547-31.272,16.831
					c-3.978,13.249,3.51,27.21,16.73,31.239c-1.391,9.227,4.172,18.313,13.369,21.075c9.276,2.785,19.009-1.837,22.864-10.446
					c2.53,7.412,8.473,13.537,16.546,15.961c13.283,3.988,27.284-3.547,31.272-16.83
					C342.941,1011.434,339.391,1001.009,331.767,994.778z M292.061,1006.308c-0.018,0.054-0.035,0.107-0.053,0.161
					c-0.038-0.082-0.075-0.164-0.115-0.246C291.95,1006.252,292.005,1006.281,292.061,1006.308z"/>
			</g>
			<g>
				<g>
					<path style="fill:#FFC866;" d="M339.933,1021.452c3.008-10.019-0.542-20.443-8.166-26.674c1.309-2.163,2.37-4.525,3.131-7.059
						c4.853-16.164-4.317-33.201-20.48-38.054c-3.551-1.066-7.143-1.447-10.64-1.234c0.572,0.133,1.144,0.279,1.714,0.45
						c14.723,4.42,23.076,19.94,18.655,34.663c-1.757,5.854-5.274,10.693-9.793,14.13c13.345,4.248,20.868,18.426,16.826,31.891
						c-0.462,1.537-1.06,2.994-1.768,4.372c-0.063,0.529-0.133,1.056-0.219,1.581C334.183,1032.4,338.108,1027.531,339.933,1021.452
						z"/>
				</g>
			</g>
		</g>
		<g>
			<g>
				<path style="fill:#FFF0D2;" d="M734.206,470.818c-1.691-6.172-5.738-11.697-11.74-15.111
					c-11.989-6.818-27.235-2.626-34.053,9.363c-4.504,7.92-4.2,17.259-0.021,24.653c-5.822,3.013-10.872,7.681-14.354,13.804
					c-9.584,16.854-3.691,38.287,13.163,47.871c16.854,9.584,38.287,3.691,47.871-13.163c1.997-3.513,3.313-7.225,4.007-10.987
					c12.825,3.332,26.786-2.163,33.649-14.231c8.201-14.422,3.158-32.761-11.263-40.962
					C752.775,467.115,742.665,466.988,734.206,470.818z"/>
			</g>
			<g>
				<path style="fill:#FFC866;" d="M734.206,470.818c-1.691-6.172-5.738-11.697-11.74-15.111c-8.696-4.945-19.103-4.094-26.767,1.32
					c6.246-1.536,13.067-0.784,19.099,2.646c9.409,5.35,14.214,15.675,12.992,25.788c7.874-4.982,18.168-5.57,26.833-0.642
					c12.51,7.114,16.885,23.023,9.771,35.533c-0.759,1.335-1.624,2.572-2.569,3.718c4.398-2.576,8.202-6.302,10.903-11.052
					c8.201-14.422,3.158-32.761-11.263-40.962C752.775,467.115,742.665,466.988,734.206,470.818z"/>
			</g>
		</g>
		<g>
			<g>
				<path style="fill:#FFF0D2;" d="M477.549,539.566c5.287,1.505,11.058,1.529,16.689-0.263
					c15.237-4.852,23.656-21.137,18.804-36.374c-4.321-13.572-17.714-21.725-31.356-19.919c0.452-4.604-0.001-9.373-1.493-14.061
					c-5.883-18.475-25.628-28.683-44.103-22.8c-18.475,5.883-28.683,25.628-22.8,44.103c1.8,5.652,4.902,10.526,8.864,14.407
					c-9.615,8.669-13.836,22.464-9.652,35.602c5.701,17.903,24.836,27.796,42.739,22.095
					C466.406,558.8,474.455,550.016,477.549,539.566z"/>
			</g>
			<g>
				<path style="fill:#FFC866;" d="M455.239,562.356c11.167-3.556,19.216-12.339,22.31-22.79c5.287,1.505,11.058,1.529,16.689-0.263
					c9.133-2.908,15.811-9.925,18.656-18.361c-3.885,3.362-8.499,6.01-13.704,7.668c-11.317,3.604-23.057,1.775-32.425-4.017
					c-4.294,10.142-12.815,18.422-24.132,22.026c-9.71,3.092-19.733,2.188-28.301-1.788
					C421.593,559.794,438.925,567.55,455.239,562.356z"/>
			</g>
		</g>
		<g style="opacity:0.1;">
			<g>
				<path d="M746.739,523.305c0-12.793-10.37-23.163-23.163-23.163c-11.178,0-20.496,7.92-22.672,18.453
					c-1.586-11.247-11.245-19.901-22.93-19.901c-12.793,0-23.163,10.371-23.163,23.163c0,0.243,0.011,0.483,0.018,0.724h-0.039
					c0.013-0.433,0.021-0.691,0.021-0.724c0-12.593-10.208-22.439-22.801-22.439c-12.593,0-22.801,10.208-22.801,22.801
					c0,0.122,0.006,0.242,0.009,0.362h-0.027c0.008-0.241,0.018-0.481,0.018-0.724c0-12.793-10.37-23.163-23.163-23.163
					s-23.163,10.371-23.163,23.163c0,0.243,0.011,0.483,0.018,0.724h-0.02c0.001-0.211,0.002-0.342,0.002-0.362
					c0-12.593-10.208-22.801-22.801-22.801c-12.593,0-22.801,10.208-22.801,22.801c0,0.122,0.006,0.242,0.009,0.362h-0.028
					c0.008-0.241,0.018-0.481,0.018-0.724c0-12.793-10.37-23.163-23.163-23.163s-23.163,10.371-23.163,23.163
					c0,0.243,0.011,0.483,0.018,0.724h-0.027c0.004-0.121,0.009-0.241,0.009-0.362c0-12.593-10.208-22.801-22.801-22.801
					c-12.592,0-22.801,10.208-22.801,22.801c0,0.023,0.004,0.155,0.011,0.362h-0.029c0.007-0.241,0.018-0.481,0.018-0.724
					c0-12.793-10.37-23.163-23.163-23.163c-12.793,0-23.163,10.371-23.163,23.163c0,0.243,0.011,0.483,0.018,0.724h-0.027
					c0.004-0.121,0.009-0.241,0.009-0.362c0-12.593-10.208-22.801-22.801-22.801c-12.593,0-22.801,10.208-22.801,22.801
					c0,1.684,25.59,395.424,31.152,480.991c-0.009,0.001-0.018,0.003-0.027,0.004l0.822,12.227c0.172,2.648,0.264,4.06,0.264,4.06
					h39.087l-0.007-0.133h39.09c0.003,0.081,0.005,0.133,0.005,0.133h38.364l-0.003-0.133h39.09l0.001,0.133h39.088
					c0,0,0-0.052,0.001-0.133h39.09l-0.003,0.133h39.088c0,0,0.002-0.052,0.004-0.133h39.089l-0.006,0.133h38.364
					c0,0,0.003-0.052,0.008-0.133h0.13l0.014-0.229h0.21l18.096-296.362c0,0-0.006,0.016-0.012,0.033
					C740.966,617.405,746.739,524.177,746.739,523.305z"/>
			</g>
		</g>
		<g>
			<g>
				<path style="fill:#FFFBE1;" d="M696.118,530.581c0.008-0.241,0.018-0.481,0.018-0.724c0-12.793-10.37-23.163-23.163-23.163
					s-23.163,10.37-23.163,23.163c0,0.243,0.011,0.483,0.018,0.724H604.19c0.007-0.241,0.018-0.481,0.018-0.724
					c0-12.793-10.371-23.163-23.163-23.163c-12.792,0-23.163,10.37-23.163,23.163c0,0.243,0.011,0.483,0.018,0.724h-45.639
					c0.007-0.241,0.018-0.481,0.018-0.724c0-12.793-10.37-23.163-23.163-23.163s-23.163,10.37-23.163,23.163
					c0,0.243,0.011,0.483,0.018,0.724h-45.639c0.007-0.241,0.018-0.481,0.018-0.724c0-12.793-10.37-23.163-23.163-23.163
					c-12.793,0-23.163,10.37-23.163,23.163c0,0.243,0.011,0.483,0.018,0.724h-45.02l32.395,496.786h349.695l30.081-496.786H696.118z
					"/>
			</g>
			<g>
				<g>
					<path style="fill:#B51E1F;" d="M374.007,530.943c0.008-0.241,0.018-0.481,0.018-0.724c0-12.593-10.208-22.801-22.801-22.801
						c-12.593,0-22.801,10.208-22.801,22.801c0,1.889,32.211,497.281,32.211,497.281h39.088L374.007,530.943z"/>
				</g>
				<g>
					<path style="fill:#B51E1F;" d="M465.935,530.943c0.008-0.241,0.018-0.481,0.018-0.724c0-12.593-10.208-22.801-22.801-22.801
						c-12.593,0-22.801,10.208-22.801,22.801c0,1.647,18.458,497.281,18.458,497.281h38.364L465.935,530.943z"/>
				</g>
				<g>
					<path style="fill:#B51E1F;" d="M535.081,507.418c-12.593,0-22.801,10.208-22.801,22.801c0,0.243,0.011,0.483,0.018,0.724
						l3.963,496.557h39.088c0,0,2.533-495.877,2.533-497.281C557.882,517.626,547.674,507.418,535.081,507.418z"/>
				</g>
				<g>
					<path style="fill:#B51E1F;" d="M627.009,507.418c-12.593,0-22.801,10.208-22.801,22.801c0,0.243,0.011,0.483,0.018,0.724
						l-9.79,496.557h39.088c0,0,16.286-496.028,16.286-497.643C649.81,517.264,639.602,507.418,627.009,507.418z"/>
				</g>
				<g>
					<path style="fill:#B51E1F;" d="M741.739,531.305c0-12.793-10.37-23.163-23.163-23.163c-12.671,0-22.96,10.176-23.154,22.801
						l-22.81,496.557h38.364C710.975,1027.5,741.739,533.318,741.739,531.305z"/>
				</g>
			</g>
			<g style="opacity:0.1;">
				<g>
					<ellipse cx="535.822" cy="774.154" rx="144.424" ry="103.872"/>
				</g>
			</g>
			<g>
				<ellipse style="fill:#F0BB5B;" cx="534.961" cy="767.64" rx="144.424" ry="103.872"/>
			</g>
			<g style="opacity:0.1;">
				<g>
					<path d="M729.433,730.776c0,0-81.572,236.532-369.885,280.438l1.07,15.925h350.718L729.433,730.776z"/>
				</g>
			</g>
		</g>
		<g>
			<g>
				<path style="fill:#FFF0D2;" d="M681.742,460.504c1.001,4.632,3.326,9.032,6.975,12.587c9.876,9.62,25.68,9.412,35.3-0.464
					c8.568-8.797,9.333-22.293,2.421-31.936c3.685-1.526,7.129-3.806,10.089-6.845c11.664-11.975,11.412-31.138-0.563-42.801
					c-11.975-11.664-31.138-11.412-42.801,0.563c-3.569,3.664-6.016,8.002-7.359,12.59c-10.497-3.794-22.703-1.404-30.998,7.112
					c-11.303,11.604-11.059,30.174,0.545,41.478C662.589,459.838,672.537,462.394,681.742,460.504z"/>
			</g>
			<g>
				<path style="fill:#FFC866;" d="M655.351,452.787c7.238,7.05,17.187,9.607,26.391,7.717c1.001,4.632,3.326,9.032,6.975,12.587
					c5.92,5.766,13.968,7.997,21.539,6.736c-4.134-1.591-8.022-4.024-11.396-7.311c-7.335-7.145-10.711-16.817-10.109-26.293
					c-9.457,0.851-19.215-2.269-26.55-9.414c-6.294-6.13-9.675-14.121-10.13-22.252
					C643.639,426.156,644.776,442.488,655.351,452.787z"/>
			</g>
		</g>
		<g>
			<g>
				<path style="fill:#FFF0D2;" d="M639.703,346.855c1.175,3.991,3.495,7.694,6.92,10.57c9.268,7.786,23.093,6.584,30.878-2.684
					c6.935-8.255,6.734-20.121,0.059-28.119c3.128-1.574,5.997-3.792,8.392-6.644c9.44-11.237,7.983-28-3.254-37.44
					c-11.237-9.44-28-7.983-37.44,3.254c-2.888,3.438-4.751,7.394-5.631,11.499c-9.436-2.645-19.969,0.235-26.682,8.227
					c-9.148,10.89-7.736,27.134,3.153,36.282C622.89,347.506,631.766,349.103,639.703,346.855z"/>
			</g>
			<g>
				<path style="fill:#FFC866;" d="M616.097,341.8c6.793,5.706,15.668,7.303,23.605,5.055c1.175,3.991,3.495,7.694,6.92,10.57
					c5.555,4.667,12.746,6.101,19.294,4.508c-3.722-1.126-7.283-3.006-10.45-5.666c-6.884-5.783-10.463-14.034-10.547-22.37
					c-8.226,1.355-16.97-0.747-23.854-6.53c-5.906-4.962-9.382-11.74-10.305-18.83C604.125,319.238,606.174,333.464,616.097,341.8z"
					/>
			</g>
		</g>
		<g>
			<g>
				<path style="fill:#FFF0D2;" d="M873.703,1005.855c1.175,3.991,3.495,7.694,6.92,10.57c9.268,7.786,23.093,6.584,30.878-2.684
					c6.935-8.255,6.734-20.121,0.059-28.119c3.128-1.574,5.997-3.792,8.392-6.644c9.44-11.237,7.983-28-3.254-37.44
					c-11.237-9.44-28-7.983-37.44,3.254c-2.888,3.438-4.751,7.394-5.631,11.499c-9.436-2.645-19.969,0.235-26.682,8.227
					c-9.148,10.89-7.736,27.134,3.153,36.282C856.89,1006.506,865.766,1008.103,873.703,1005.855z"/>
			</g>
			<g>
				<path style="fill:#FFC866;" d="M850.097,1000.8c6.793,5.706,15.668,7.303,23.605,5.055c1.175,3.991,3.495,7.694,6.92,10.57
					c5.555,4.667,12.746,6.101,19.294,4.508c-3.722-1.126-7.283-3.006-10.45-5.666c-6.884-5.783-10.463-14.034-10.547-22.37
					c-8.226,1.355-16.97-0.747-23.854-6.53c-5.906-4.961-9.382-11.74-10.305-18.83C838.125,978.238,840.174,992.464,850.097,1000.8z
					"/>
			</g>
		</g>
		<g>
			<g>
				<path style="fill:#FFF0D2;" d="M674.541,198.817c3.957-1.286,7.594-3.707,10.374-7.21c7.526-9.48,5.941-23.266-3.54-30.792
					c-8.444-6.703-20.3-6.173-28.11,0.721c-1.66-3.084-3.957-5.889-6.874-8.204c-11.495-9.125-28.211-7.203-37.335,4.292
					c-9.125,11.495-7.203,28.21,4.292,37.335c3.517,2.792,7.523,4.544,11.651,5.31c-2.382,9.505,0.789,19.955,8.964,26.444
					c11.139,8.842,27.338,6.98,36.18-4.159C675.659,215.605,677.009,206.689,674.541,198.817z"/>
			</g>
			<g>
				<path style="fill:#FFC866;" d="M670.144,222.554c5.516-6.948,6.865-15.865,4.398-23.737c3.957-1.286,7.594-3.707,10.374-7.21
					c4.511-5.682,5.745-12.911,3.971-19.411c-1.022,3.752-2.803,7.364-5.374,10.603c-5.589,7.042-13.738,10.848-22.068,11.164
					c1.583,8.185-0.276,16.984-5.865,24.026c-4.796,6.041-11.475,9.705-18.537,10.823
					C647.922,235.147,662.086,232.704,670.144,222.554z"/>
			</g>
		</g>
		<g>
			<g>
				<path style="fill:#FFF0D2;" d="M482.676,150.682c2.01,1.131,4.194,2.03,6.526,2.652c14.876,3.966,30.14-4.835,34.092-19.659
					c3.69-13.839-3.785-28.032-16.899-33.083c1.269-1.958,2.259-4.141,2.892-6.516c3.248-12.182-4.029-24.7-16.254-27.959
					c-12.194-3.251-24.702,3.938-27.989,16.063c-8.452-1.011-16.572,4.294-18.822,12.729c-2.268,8.507,2.229,17.226,10.189,20.493
					c-6.683,2.503-12.093,8.073-14.067,15.477c-3.248,12.182,4.029,24.699,16.254,27.959
					C467.819,161.295,477.218,157.783,482.676,150.682z M471.008,114.912c-0.049-0.015-0.099-0.029-0.148-0.043
					c0.074-0.037,0.148-0.073,0.221-0.111C471.056,114.81,471.032,114.861,471.008,114.912z"/>
			</g>
			<g>
				<g>
					<path style="fill:#FFC866;" d="M458.599,158.837c9.22,2.458,18.619-1.054,24.077-8.155c2.01,1.131,4.194,2.03,6.526,2.652
						c14.876,3.966,30.14-4.835,34.092-19.659c0.868-3.257,1.111-6.532,0.815-9.704c-0.105,0.524-0.221,1.047-0.36,1.57
						c-3.6,13.503-17.504,21.52-31.054,17.907c-5.387-1.436-9.901-4.5-13.166-8.512c-3.484,12.245-16.189,19.472-28.581,16.168
						c-1.414-0.377-2.76-0.881-4.037-1.486c-0.484-0.043-0.967-0.092-1.447-0.156C448.452,153.912,453.005,157.345,458.599,158.837z
						"/>
				</g>
			</g>
		</g>
		<g>
			<g>
				<path style="fill:#FFF0D2;" d="M408.809,339.411c2.305,0.065,4.657-0.156,7.01-0.692c15.012-3.416,24.422-18.312,21.018-33.271
					c-3.178-13.966-16.402-23.046-30.359-21.411c0.211-2.323,0.071-4.717-0.474-7.113c-2.797-12.293-15.066-19.983-27.402-17.176
					c-12.305,2.8-20.028,14.986-17.291,27.247c-7.951,3.04-12.667,11.517-10.73,20.029c1.954,8.585,9.993,14.207,18.559,13.392
					c-4.749,5.327-6.943,12.775-5.243,20.246c2.797,12.293,15.066,19.983,27.402,17.176
					C400.602,355.721,407.285,348.236,408.809,339.411z M381.829,313.187c-0.051,0.01-0.101,0.02-0.151,0.031
					c0.048-0.067,0.097-0.133,0.143-0.201C381.824,313.074,381.826,313.13,381.829,313.187z"/>
			</g>
			<g>
				<g>
					<path style="fill:#FFC866;" d="M391.298,357.838c9.305-2.117,15.987-9.602,17.512-18.427c2.305,0.065,4.657-0.156,7.01-0.692
						c15.012-3.416,24.422-18.312,21.018-33.271c-0.748-3.287-2.058-6.298-3.797-8.967c0.151,0.512,0.292,1.03,0.412,1.558
						c3.101,13.626-5.471,27.195-19.145,30.306c-5.436,1.237-10.857,0.628-15.615-1.403c2.618,12.459-5.261,24.77-17.766,27.615
						c-1.427,0.325-2.853,0.505-4.265,0.565c-0.448,0.187-0.898,0.368-1.353,0.536C380.025,358.204,385.653,359.122,391.298,357.838
						z"/>
				</g>
			</g>
		</g>
	</g>
</g>
</svg>
